<svg width="44" height="44" viewBox="0 0 44 44" fill="none" xmlns="http://www.w3.org/2000/svg">
    <path d="M29 12h-1v-1a1 1 0 0 0-2 0v1h-8v-1a1 1 0 0 0-2 0v1h-1a5.006 5.006 0 0 0-5 5v12a5.006 5.006 0 0 0 5 5h14a5.006 5.006 0 0 0 5-5V17a5.006 5.006 0 0 0-5-5zm-17 5a3 3 0 0 1 3-3h14a3 3 0 0 1 3 3v1H12v-1zm17 15H15a3 3 0 0 1-3-3v-9h20v9a3 3 0 0 1-3 3z" fill="#fff"/>
    <path d="M22 26.5a1.5 1.5 0 1 0 0-3 1.5 1.5 0 0 0 0 3zM17 26.5a1.5 1.5 0 1 0 0-3 1.5 1.5 0 0 0 0 3zM27 26.5a1.5 1.5 0 1 0 0-3 1.5 1.5 0 0 0 0 3z" fill="#fff"/>
</svg>
