<svg width="24" height="24" viewBox="0 0 24 24" fill="none" xmlns="http://www.w3.org/2000/svg">
<path d="M18.9934 2H17.9934V1C17.9934 0.448 17.5464 0 16.9934 0C16.4404 0 15.9934 0.448 15.9934 1V2H7.99341V1C7.99341 0.448 7.54641 0 6.99341 0C6.44041 0 5.99341 0.448 5.99341 1V2H4.99341C2.23641 2 -0.0065918 4.243 -0.0065918 7V19C-0.0065918 21.757 2.23641 24 4.99341 24H18.9934C21.7504 24 23.9934 21.757 23.9934 19V7C23.9934 4.243 21.7504 2 18.9934 2ZM4.99341 4H18.9934C20.6474 4 21.9934 5.346 21.9934 7V8H1.99341V7C1.99341 5.346 3.33941 4 4.99341 4ZM18.9934 22H4.99341C3.33941 22 1.99341 20.654 1.99341 19V10H21.9934V19C21.9934 20.654 20.6474 22 18.9934 22ZM17.8254 13.152C18.2094 13.549 18.1974 14.183 17.8004 14.566L13.0604 19.134C12.5074 19.687 11.7534 20 10.9524 20C10.1514 20 9.39741 19.688 8.83141 19.121L6.57941 17.029C6.17541 16.653 6.15141 16.02 6.52741 15.616C6.90541 15.211 7.53741 15.189 7.94041 15.564L10.2184 17.681C10.6514 18.111 11.2814 18.083 11.6574 17.707L16.4114 13.125C16.8094 12.742 17.4414 12.755 17.8254 13.152Z" fill="white"/>
</svg>
