<svg width="20" height="24" viewBox="0 0 20 24" fill="none" xmlns="http://www.w3.org/2000/svg">
<path d="M9.59348 12C10.8593 12 12.0967 11.6481 13.1491 10.9888C14.2016 10.3295 15.0219 9.39246 15.5063 8.2961C15.9907 7.19975 16.1175 5.99335 15.8705 4.82946C15.6236 3.66557 15.014 2.59648 14.119 1.75736C13.2239 0.918247 12.0835 0.346802 10.8421 0.115291C9.60058 -0.11622 8.31375 0.00259972 7.14431 0.456725C5.97486 0.910851 4.97532 1.67989 4.27208 2.66658C3.56883 3.65328 3.19348 4.81331 3.19348 6C3.19518 7.59081 3.87 9.11601 5.06987 10.2409C6.26974 11.3658 7.89662 11.9984 9.59348 12ZM9.59348 2C10.4373 2 11.2623 2.2346 11.9639 2.67412C12.6656 3.11365 13.2124 3.73836 13.5354 4.46927C13.8583 5.20017 13.9428 6.00444 13.7782 6.78036C13.6135 7.55629 13.2072 8.26902 12.6105 8.82843C12.0138 9.38784 11.2535 9.7688 10.4259 9.92314C9.59821 10.0775 8.74033 9.99827 7.9607 9.69552C7.18107 9.39277 6.51471 8.88008 6.04588 8.22228C5.57705 7.56449 5.32681 6.79113 5.32681 6C5.32681 4.93914 5.77634 3.92172 6.57649 3.17158C7.37665 2.42143 8.46189 2 9.59348 2Z" fill="white"/>
<path d="M9.59341 14.0001C7.0482 14.0028 4.60804 14.9518 2.8083 16.6391C1.00856 18.3263 -0.00376849 20.614 -0.0065918 23.0001C-0.0065918 23.2653 0.105789 23.5197 0.305828 23.7072C0.505866 23.8948 0.777177 24.0001 1.06007 24.0001C1.34297 24.0001 1.61428 23.8948 1.81432 23.7072C2.01436 23.5197 2.12674 23.2653 2.12674 23.0001C2.12674 21.1436 2.91341 19.3631 4.31368 18.0504C5.71395 16.7376 7.61313 16.0001 9.59341 16.0001C11.5737 16.0001 13.4729 16.7376 14.8731 18.0504C16.2734 19.3631 17.0601 21.1436 17.0601 23.0001C17.0601 23.2653 17.1725 23.5197 17.3725 23.7072C17.5725 23.8948 17.8438 24.0001 18.1267 24.0001C18.4096 24.0001 18.681 23.8948 18.881 23.7072C19.081 23.5197 19.1934 23.2653 19.1934 23.0001C19.1906 20.614 18.1783 18.3263 16.3785 16.6391C14.5788 14.9518 12.1386 14.0028 9.59341 14.0001Z" fill="white"/>
</svg>
