<svg width="14" height="15" viewBox="0 0 14 15" fill="none" xmlns="http://www.w3.org/2000/svg">
<path d="M4.49998 1.66663C4.27897 1.66663 4.067 1.75443 3.91072 1.91071C3.75444 2.06699 3.66665 2.27895 3.66665 2.49997C3.66665 2.72098 3.75444 2.93294 3.91072 3.08922C4.067 3.2455 4.27897 3.3333 4.49998 3.3333C4.72099 3.3333 4.93295 3.2455 5.08923 3.08922C5.24552 2.93294 5.33331 2.72098 5.33331 2.49997C5.33331 2.27895 5.24552 2.06699 5.08923 1.91071C4.93295 1.75443 4.72099 1.66663 4.49998 1.66663ZM2.14165 1.66663C2.31381 1.17869 2.6331 0.756162 3.05548 0.457291C3.47786 0.158421 3.98255 -0.0020752 4.49998 -0.0020752C5.01741 -0.0020752 5.5221 0.158421 5.94448 0.457291C6.36686 0.756162 6.68614 1.17869 6.85831 1.66663H12.8333C13.0543 1.66663 13.2663 1.75443 13.4226 1.91071C13.5788 2.06699 13.6666 2.27895 13.6666 2.49997C13.6666 2.72098 13.5788 2.93294 13.4226 3.08922C13.2663 3.2455 13.0543 3.3333 12.8333 3.3333H6.85831C6.68614 3.82124 6.36686 4.24377 5.94448 4.54264C5.5221 4.84151 5.01741 5.00201 4.49998 5.00201C3.98255 5.00201 3.47786 4.84151 3.05548 4.54264C2.6331 4.24377 2.31381 3.82124 2.14165 3.3333H1.16665C0.945633 3.3333 0.733671 3.2455 0.577391 3.08922C0.421111 2.93294 0.333313 2.72098 0.333313 2.49997C0.333313 2.27895 0.421111 2.06699 0.577391 1.91071C0.733671 1.75443 0.945633 1.66663 1.16665 1.66663H2.14165ZM9.49998 6.66663C9.27897 6.66663 9.067 6.75443 8.91072 6.91071C8.75444 7.06699 8.66665 7.27895 8.66665 7.49997C8.66665 7.72098 8.75444 7.93294 8.91072 8.08922C9.067 8.2455 9.27897 8.3333 9.49998 8.3333C9.72099 8.3333 9.93295 8.2455 10.0892 8.08922C10.2455 7.93294 10.3333 7.72098 10.3333 7.49997C10.3333 7.27895 10.2455 7.06699 10.0892 6.91071C9.93295 6.75443 9.72099 6.66663 9.49998 6.66663ZM7.14165 6.66663C7.31381 6.17869 7.6331 5.75616 8.05548 5.45729C8.47786 5.15842 8.98255 4.99792 9.49998 4.99792C10.0174 4.99792 10.5221 5.15842 10.9445 5.45729C11.3669 5.75616 11.6861 6.17869 11.8583 6.66663H12.8333C13.0543 6.66663 13.2663 6.75443 13.4226 6.91071C13.5788 7.06699 13.6666 7.27895 13.6666 7.49997C13.6666 7.72098 13.5788 7.93294 13.4226 8.08922C13.2663 8.2455 13.0543 8.3333 12.8333 8.3333H11.8583C11.6861 8.82124 11.3669 9.24377 10.9445 9.54264C10.5221 9.84151 10.0174 10.002 9.49998 10.002C8.98255 10.002 8.47786 9.84151 8.05548 9.54264C7.6331 9.24377 7.31381 8.82124 7.14165 8.3333H1.16665C0.945633 8.3333 0.733671 8.2455 0.577391 8.08922C0.421111 7.93294 0.333313 7.72098 0.333313 7.49997C0.333313 7.27895 0.421111 7.06699 0.577391 6.91071C0.733671 6.75443 0.945633 6.66663 1.16665 6.66663H7.14165ZM4.49998 11.6666C4.27897 11.6666 4.067 11.7544 3.91072 11.9107C3.75444 12.067 3.66665 12.279 3.66665 12.5C3.66665 12.721 3.75444 12.9329 3.91072 13.0892C4.067 13.2455 4.27897 13.3333 4.49998 13.3333C4.72099 13.3333 4.93295 13.2455 5.08923 13.0892C5.24552 12.9329 5.33331 12.721 5.33331 12.5C5.33331 12.279 5.24552 12.067 5.08923 11.9107C4.93295 11.7544 4.72099 11.6666 4.49998 11.6666ZM2.14165 11.6666C2.31381 11.1787 2.6331 10.7562 3.05548 10.4573C3.47786 10.1584 3.98255 9.99792 4.49998 9.99792C5.01741 9.99792 5.5221 10.1584 5.94448 10.4573C6.36686 10.7562 6.68614 11.1787 6.85831 11.6666H12.8333C13.0543 11.6666 13.2663 11.7544 13.4226 11.9107C13.5788 12.067 13.6666 12.279 13.6666 12.5C13.6666 12.721 13.5788 12.9329 13.4226 13.0892C13.2663 13.2455 13.0543 13.3333 12.8333 13.3333H6.85831C6.68614 13.8212 6.36686 14.2438 5.94448 14.5426C5.5221 14.8415 5.01741 15.002 4.49998 15.002C3.98255 15.002 3.47786 14.8415 3.05548 14.5426C2.6331 14.2438 2.31381 13.8212 2.14165 13.3333H1.16665C0.945633 13.3333 0.733671 13.2455 0.577391 13.0892C0.421111 12.9329 0.333313 12.721 0.333313 12.5C0.333313 12.279 0.421111 12.067 0.577391 11.9107C0.733671 11.7544 0.945633 11.6666 1.16665 11.6666H2.14165Z" fill="white"/>
</svg>
