<svg width="24" height="24" viewBox="0 0 24 24" fill="none" xmlns="http://www.w3.org/2000/svg">
<path d="M4.00065 6.52729C3.60642 6.52842 3.21589 6.44417 2.85167 6.2794C2.48744 6.11463 2.15675 5.87263 1.87872 5.56738L0.334773 4.06691C0.136663 3.87401 0.0168317 3.60307 0.00164177 3.31369C-0.0135482 3.02431 0.077147 2.74019 0.253775 2.52384C0.430404 2.30749 0.678497 2.17662 0.943477 2.16003C1.20846 2.14345 1.46862 2.24249 1.66673 2.43539L3.25168 3.97954C3.34241 4.09082 3.45304 4.18064 3.57674 4.24348C3.70045 4.30632 3.83463 4.34085 3.97101 4.34494C4.1074 4.34903 4.2431 4.3226 4.36978 4.26727C4.49647 4.21195 4.61144 4.12889 4.70763 4.02322L8.31151 0.276404C8.5053 0.0879928 8.75856 -0.0107844 9.01779 0.000935437C9.27703 0.0126553 9.52194 0.133955 9.70081 0.339213C9.87967 0.544471 9.97848 0.817617 9.97637 1.10096C9.97425 1.3843 9.87137 1.65565 9.68947 1.85769L6.10058 5.58595C5.82437 5.88584 5.49673 6.12334 5.13641 6.28487C4.77609 6.44639 4.39015 6.52877 4.00065 6.52729ZM24 4.34319C24 4.05357 23.8946 3.7758 23.7071 3.571C23.5196 3.3662 23.2652 3.25115 23 3.25115H13.0004C12.7352 3.25115 12.4808 3.3662 12.2933 3.571C12.1057 3.7758 12.0004 4.05357 12.0004 4.34319C12.0004 4.63282 12.1057 4.91059 12.2933 5.11539C12.4808 5.32019 12.7352 5.43524 13.0004 5.43524H23C23.2652 5.43524 23.5196 5.32019 23.7071 5.11539C23.8946 4.91059 24 4.63282 24 4.34319ZM6.10058 14.3223L9.68947 10.5941C9.78964 10.4967 9.87084 10.3783 9.92825 10.2459C9.98567 10.1136 10.0181 9.96994 10.0237 9.82361C10.0292 9.67727 10.0077 9.53121 9.96054 9.39412C9.91335 9.25702 9.84138 9.1317 9.74892 9.0256C9.65647 8.9195 9.54542 8.8348 9.42237 8.77653C9.29933 8.71826 9.16681 8.68762 9.0327 8.68643C8.89859 8.68523 8.76564 8.71351 8.64174 8.76958C8.51784 8.82565 8.40554 8.90836 8.31151 9.0128L4.71163 12.7596C4.52127 12.9584 4.26804 13.0693 4.00465 13.0693C3.74127 13.0693 3.48804 12.9584 3.29768 12.7596L1.70773 11.0287C1.51913 10.8298 1.26654 10.7197 1.00435 10.7222C0.742161 10.7247 0.491357 10.8395 0.305955 11.042C0.120553 11.2445 0.0153876 11.5184 0.0131092 11.8047C0.0108309 12.0911 0.111622 12.3669 0.293774 12.5729L1.87872 14.3038C2.43838 14.9151 3.1966 15.2601 3.98815 15.2636C4.77971 15.2671 5.54044 14.9287 6.10458 14.3223H6.10058ZM24 13.0796C24 12.79 23.8946 12.5122 23.7071 12.3074C23.5196 12.1026 23.2652 11.9875 23 11.9875H13.0004C12.7352 11.9875 12.4808 12.1026 12.2933 12.3074C12.1057 12.5122 12.0004 12.79 12.0004 13.0796C12.0004 13.3692 12.1057 13.647 12.2933 13.8518C12.4808 14.0566 12.7352 14.1716 13.0004 14.1716H23C23.2652 14.1716 23.5196 14.0566 23.7071 13.8518C23.8946 13.647 24 13.3692 24 13.0796ZM6.10058 23.0587L9.68547 19.3305C9.78564 19.2331 9.86684 19.1147 9.92425 18.9823C9.98167 18.85 10.0141 18.7063 10.0197 18.56C10.0252 18.4137 10.0037 18.2676 9.95654 18.1305C9.90935 17.9934 9.83738 17.8681 9.74492 17.762C9.65247 17.6559 9.54142 17.5712 9.41837 17.5129C9.29533 17.4547 9.16281 17.424 9.0287 17.4228C8.8946 17.4216 8.76164 17.4499 8.63774 17.506C8.51384 17.562 8.40154 17.6448 8.30751 17.7492L4.70763 21.496C4.61144 21.6017 4.49647 21.6847 4.36978 21.7401C4.2431 21.7954 4.1074 21.8218 3.97101 21.8177C3.83463 21.8136 3.70045 21.7791 3.57674 21.7163C3.45304 21.6534 3.34241 21.5636 3.25168 21.4523L1.66673 19.9082C1.46862 19.7153 1.20846 19.6162 0.943477 19.6328C0.678497 19.6494 0.430404 19.7803 0.253775 19.9966C0.077147 20.213 -0.0135482 20.4971 0.00164177 20.7865C0.0168317 21.0759 0.136663 21.3468 0.334773 21.5397L1.87872 23.0402C2.43838 23.6515 3.1966 23.9965 3.98815 24C4.77971 24.0035 5.54044 23.6651 6.10458 23.0587H6.10058ZM24 21.816C24 21.5264 23.8946 21.2486 23.7071 21.0438C23.5196 20.839 23.2652 20.7239 23 20.7239H13.0004C12.7352 20.7239 12.4808 20.839 12.2933 21.0438C12.1057 21.2486 12.0004 21.5264 12.0004 21.816C12.0004 22.1056 12.1057 22.3834 12.2933 22.5882C12.4808 22.793 12.7352 22.908 13.0004 22.908H23C23.2652 22.908 23.5196 22.793 23.7071 22.5882C23.8946 22.3834 24 22.1056 24 21.816Z" fill="white"/>
</svg>
