<svg width="24" height="24" viewBox="0 0 24 24" fill="none" xmlns="http://www.w3.org/2000/svg">
<path d="M8.99748 24.0001H0.99972C0.734578 24.0001 0.480295 23.8947 0.292811 23.7072C0.105327 23.5198 0 23.2655 0 23.0003C0 22.7352 0.105327 22.4809 0.292811 22.2934C0.480295 22.1059 0.734578 22.0006 0.99972 22.0006H8.99748C9.26262 22.0006 9.51691 22.1059 9.70439 22.2934C9.89188 22.4809 9.9972 22.7352 9.9972 23.0003C9.9972 23.2655 9.89188 23.5198 9.70439 23.7072C9.51691 23.8947 9.26262 24.0001 8.99748 24.0001Z" fill="white"/>
<path d="M6.99804 20.0013H0.99972C0.734578 20.0013 0.480295 19.8959 0.292811 19.7085C0.105327 19.521 0 19.2667 0 19.0016C0 18.7364 0.105327 18.4821 0.292811 18.2946C0.480295 18.1072 0.734578 18.0018 0.99972 18.0018H6.99804C7.26318 18.0018 7.51747 18.1072 7.70495 18.2946C7.89244 18.4821 7.99776 18.7364 7.99776 19.0016C7.99776 19.2667 7.89244 19.521 7.70495 19.7085C7.51747 19.8959 7.26318 20.0013 6.99804 20.0013Z" fill="white"/>
<path d="M4.9986 16.0025H0.99972C0.734578 16.0025 0.480295 15.8972 0.292811 15.7097C0.105327 15.5222 0 15.2679 0 15.0028C0 14.7376 0.105327 14.4833 0.292811 14.2959C0.480295 14.1084 0.734578 14.0031 0.99972 14.0031H4.9986C5.26374 14.0031 5.51803 14.1084 5.70551 14.2959C5.89299 14.4833 5.99832 14.7376 5.99832 15.0028C5.99832 15.2679 5.89299 15.5222 5.70551 15.7097C5.51803 15.8972 5.26374 16.0025 4.9986 16.0025Z" fill="white"/>
<path d="M12.9964 23.955C12.7312 23.9668 12.4722 23.8728 12.2764 23.6937C12.0806 23.5145 11.964 23.2649 11.9522 22.9998C11.9404 22.7346 12.0344 22.4757 12.2135 22.2798C12.3926 22.084 12.6422 21.9674 12.9074 21.9556C14.7993 21.7825 16.6027 21.0738 18.1065 19.9127C19.6102 18.7516 20.7519 17.186 21.3979 15.3994C22.044 13.6128 22.1675 11.6791 21.7542 9.82477C21.3408 7.97045 20.4076 6.27231 19.0639 4.92923C17.7202 3.58616 16.0217 2.65376 14.1671 2.24125C12.3126 1.82874 10.379 1.95319 8.59266 2.60004C6.80634 3.24688 5.24131 4.38934 4.08088 5.89358C2.92045 7.39783 2.21266 9.20159 2.04042 11.0936C2.01656 11.3577 1.88877 11.6015 1.68516 11.7713C1.48156 11.9412 1.21881 12.0232 0.954728 11.9993C0.690646 11.9755 0.44686 11.8477 0.277 11.6441C0.107139 11.4405 0.0251187 11.1777 0.0489815 10.9137C0.327792 7.83782 1.7821 4.98801 4.10917 2.95744C6.43625 0.926878 9.45679 -0.127993 12.542 0.0124151C15.6273 0.152823 18.5395 1.47769 20.6725 3.71124C22.8056 5.94478 23.995 8.91491 23.9933 12.0033C24.0086 15.0009 22.895 17.8943 20.8741 20.1081C18.8531 22.3219 16.0728 23.6938 13.0863 23.951C13.0563 23.954 13.0254 23.955 12.9964 23.955Z" fill="white"/>
<path d="M11.9964 6.00513C11.7313 6.00513 11.477 6.11045 11.2895 6.29794C11.102 6.48542 10.9967 6.7397 10.9967 7.00485V12.0034C10.9968 12.2686 11.1021 12.5228 11.2896 12.7103L14.2888 15.7094C14.4773 15.8915 14.7299 15.9923 14.992 15.99C15.2541 15.9877 15.5049 15.8826 15.6902 15.6972C15.8756 15.5119 15.9807 15.2611 15.983 14.999C15.9853 14.7369 15.8845 14.4844 15.7024 14.2958L12.9961 11.5896V7.00485C12.9961 6.7397 12.8908 6.48542 12.7033 6.29794C12.5158 6.11045 12.2616 6.00513 11.9964 6.00513Z" fill="white"/>
</svg>
